<svg xmlns="http://www.w3.org/2000/svg" width="150" height="150" viewBox="0 0 150 150"><rect width="150" height="150" fill="#F7F1E2"/><g transform="translate(-112,-112)"><circle r="19" fill="#F6DE7E" fill-opacity="0.35" stroke="#D9B53E" stroke-width="2"/><circle r="14.5" fill="none" stroke="#D9B53E" stroke-width="1"/><path d="M0 0L14.0 0.0" stroke="#D9B53E" stroke-width="1.2"/><path d="M0 0L9.9 9.9" stroke="#D9B53E" stroke-width="1.2"/><path d="M0 0L0.0 14.0" stroke="#D9B53E" stroke-width="1.2"/><path d="M0 0L-9.9 9.9" stroke="#D9B53E" stroke-width="1.2"/><path d="M0 0L-14.0 0.0" stroke="#D9B53E" stroke-width="1.2"/><path d="M0 0L-9.9 -9.9" stroke="#D9B53E" stroke-width="1.2"/><path d="M0 0L-0.0 -14.0" stroke="#D9B53E" stroke-width="1.2"/><path d="M0 0L9.9 -9.9" stroke="#D9B53E" stroke-width="1.2"/></g><g transform="translate(-112,38)"><circle r="19" fill="#F6DE7E" fill-opacity="0.35" stroke="#D9B53E" stroke-width="2"/><circle r="14.5" fill="none" stroke="#D9B53E" stroke-width="1"/><path d="M0 0L14.0 0.0" stroke="#D9B53E" stroke-width="1.2"/><path d="M0 0L9.9 9.9" stroke="#D9B53E" stroke-width="1.2"/><path d="M0 0L0.0 14.0" stroke="#D9B53E" stroke-width="1.2"/><path d="M0 0L-9.9 9.9" stroke="#D9B53E" stroke-width="1.2"/><path d="M0 0L-14.0 0.0" stroke="#D9B53E" stroke-width="1.2"/><path d="M0 0L-9.9 -9.9" stroke="#D9B53E" stroke-width="1.2"/><path d="M0 0L-0.0 -14.0" stroke="#D9B53E" stroke-width="1.2"/><path d="M0 0L9.9 -9.9" stroke="#D9B53E" stroke-width="1.2"/></g><g transform="translate(-112,188)"><circle r="19" fill="#F6DE7E" fill-opacity="0.35" stroke="#D9B53E" stroke-width="2"/><circle r="14.5" fill="none" stroke="#D9B53E" stroke-width="1"/><path d="M0 0L14.0 0.0" stroke="#D9B53E" stroke-width="1.2"/><path d="M0 0L9.9 9.9" stroke="#D9B53E" stroke-width="1.2"/><path d="M0 0L0.0 14.0" stroke="#D9B53E" stroke-width="1.2"/><path d="M0 0L-9.9 9.9" stroke="#D9B53E" stroke-width="1.2"/><path d="M0 0L-14.0 0.0" stroke="#D9B53E" stroke-width="1.2"/><path d="M0 0L-9.9 -9.9" stroke="#D9B53E" stroke-width="1.2"/><path d="M0 0L-0.0 -14.0" stroke="#D9B53E" stroke-width="1.2"/><path d="M0 0L9.9 -9.9" stroke="#D9B53E" stroke-width="1.2"/></g><g transform="translate(38,-112)"><circle r="19" fill="#F6DE7E" fill-opacity="0.35" stroke="#D9B53E" stroke-width="2"/><circle r="14.5" fill="none" stroke="#D9B53E" stroke-width="1"/><path d="M0 0L14.0 0.0" stroke="#D9B53E" stroke-width="1.2"/><path d="M0 0L9.9 9.9" stroke="#D9B53E" stroke-width="1.2"/><path d="M0 0L0.0 14.0" stroke="#D9B53E" stroke-width="1.2"/><path d="M0 0L-9.9 9.9" stroke="#D9B53E" stroke-width="1.2"/><path d="M0 0L-14.0 0.0" stroke="#D9B53E" stroke-width="1.2"/><path d="M0 0L-9.9 -9.9" stroke="#D9B53E" stroke-width="1.2"/><path d="M0 0L-0.0 -14.0" stroke="#D9B53E" stroke-width="1.2"/><path d="M0 0L9.9 -9.9" stroke="#D9B53E" stroke-width="1.2"/></g><g transform="translate(38,38)"><circle r="19" fill="#F6DE7E" fill-opacity="0.35" stroke="#D9B53E" stroke-width="2"/><circle r="14.5" fill="none" stroke="#D9B53E" stroke-width="1"/><path d="M0 0L14.0 0.0" stroke="#D9B53E" stroke-width="1.2"/><path d="M0 0L9.9 9.9" stroke="#D9B53E" stroke-width="1.2"/><path d="M0 0L0.0 14.0" stroke="#D9B53E" stroke-width="1.2"/><path d="M0 0L-9.9 9.9" stroke="#D9B53E" stroke-width="1.2"/><path d="M0 0L-14.0 0.0" stroke="#D9B53E" stroke-width="1.2"/><path d="M0 0L-9.9 -9.9" stroke="#D9B53E" stroke-width="1.2"/><path d="M0 0L-0.0 -14.0" stroke="#D9B53E" stroke-width="1.2"/><path d="M0 0L9.9 -9.9" stroke="#D9B53E" stroke-width="1.2"/></g><g transform="translate(38,188)"><circle r="19" fill="#F6DE7E" fill-opacity="0.35" stroke="#D9B53E" stroke-width="2"/><circle r="14.5" fill="none" stroke="#D9B53E" stroke-width="1"/><path d="M0 0L14.0 0.0" stroke="#D9B53E" stroke-width="1.2"/><path d="M0 0L9.9 9.9" stroke="#D9B53E" stroke-width="1.2"/><path d="M0 0L0.0 14.0" stroke="#D9B53E" stroke-width="1.2"/><path d="M0 0L-9.9 9.9" stroke="#D9B53E" stroke-width="1.2"/><path d="M0 0L-14.0 0.0" stroke="#D9B53E" stroke-width="1.2"/><path d="M0 0L-9.9 -9.9" stroke="#D9B53E" stroke-width="1.2"/><path d="M0 0L-0.0 -14.0" stroke="#D9B53E" stroke-width="1.2"/><path d="M0 0L9.9 -9.9" stroke="#D9B53E" stroke-width="1.2"/></g><g transform="translate(188,-112)"><circle r="19" fill="#F6DE7E" fill-opacity="0.35" stroke="#D9B53E" stroke-width="2"/><circle r="14.5" fill="none" stroke="#D9B53E" stroke-width="1"/><path d="M0 0L14.0 0.0" stroke="#D9B53E" stroke-width="1.2"/><path d="M0 0L9.9 9.9" stroke="#D9B53E" stroke-width="1.2"/><path d="M0 0L0.0 14.0" stroke="#D9B53E" stroke-width="1.2"/><path d="M0 0L-9.9 9.9" stroke="#D9B53E" stroke-width="1.2"/><path d="M0 0L-14.0 0.0" stroke="#D9B53E" stroke-width="1.2"/><path d="M0 0L-9.9 -9.9" stroke="#D9B53E" stroke-width="1.2"/><path d="M0 0L-0.0 -14.0" stroke="#D9B53E" stroke-width="1.2"/><path d="M0 0L9.9 -9.9" stroke="#D9B53E" stroke-width="1.2"/></g><g transform="translate(188,38)"><circle r="19" fill="#F6DE7E" fill-opacity="0.35" stroke="#D9B53E" stroke-width="2"/><circle r="14.5" fill="none" stroke="#D9B53E" stroke-width="1"/><path d="M0 0L14.0 0.0" stroke="#D9B53E" stroke-width="1.2"/><path d="M0 0L9.9 9.9" stroke="#D9B53E" stroke-width="1.2"/><path d="M0 0L0.0 14.0" stroke="#D9B53E" stroke-width="1.2"/><path d="M0 0L-9.9 9.9" stroke="#D9B53E" stroke-width="1.2"/><path d="M0 0L-14.0 0.0" stroke="#D9B53E" stroke-width="1.2"/><path d="M0 0L-9.9 -9.9" stroke="#D9B53E" stroke-width="1.2"/><path d="M0 0L-0.0 -14.0" stroke="#D9B53E" stroke-width="1.2"/><path d="M0 0L9.9 -9.9" stroke="#D9B53E" stroke-width="1.2"/></g><g transform="translate(188,188)"><circle r="19" fill="#F6DE7E" fill-opacity="0.35" stroke="#D9B53E" stroke-width="2"/><circle r="14.5" fill="none" stroke="#D9B53E" stroke-width="1"/><path d="M0 0L14.0 0.0" stroke="#D9B53E" stroke-width="1.2"/><path d="M0 0L9.9 9.9" stroke="#D9B53E" stroke-width="1.2"/><path d="M0 0L0.0 14.0" stroke="#D9B53E" stroke-width="1.2"/><path d="M0 0L-9.9 9.9" stroke="#D9B53E" stroke-width="1.2"/><path d="M0 0L-14.0 0.0" stroke="#D9B53E" stroke-width="1.2"/><path d="M0 0L-9.9 -9.9" stroke="#D9B53E" stroke-width="1.2"/><path d="M0 0L-0.0 -14.0" stroke="#D9B53E" stroke-width="1.2"/><path d="M0 0L9.9 -9.9" stroke="#D9B53E" stroke-width="1.2"/></g><g transform="translate(-38,-38)"><circle r="19" fill="#F6B98A" fill-opacity="0.35" stroke="#E88B4E" stroke-width="2"/><circle r="14.5" fill="none" stroke="#E88B4E" stroke-width="1"/><path d="M0 0L14.0 0.0" stroke="#E88B4E" stroke-width="1.2"/><path d="M0 0L9.9 9.9" stroke="#E88B4E" stroke-width="1.2"/><path d="M0 0L0.0 14.0" stroke="#E88B4E" stroke-width="1.2"/><path d="M0 0L-9.9 9.9" stroke="#E88B4E" stroke-width="1.2"/><path d="M0 0L-14.0 0.0" stroke="#E88B4E" stroke-width="1.2"/><path d="M0 0L-9.9 -9.9" stroke="#E88B4E" stroke-width="1.2"/><path d="M0 0L-0.0 -14.0" stroke="#E88B4E" stroke-width="1.2"/><path d="M0 0L9.9 -9.9" stroke="#E88B4E" stroke-width="1.2"/></g><g transform="translate(-38,112)"><circle r="19" fill="#F6B98A" fill-opacity="0.35" stroke="#E88B4E" stroke-width="2"/><circle r="14.5" fill="none" stroke="#E88B4E" stroke-width="1"/><path d="M0 0L14.0 0.0" stroke="#E88B4E" stroke-width="1.2"/><path d="M0 0L9.9 9.9" stroke="#E88B4E" stroke-width="1.2"/><path d="M0 0L0.0 14.0" stroke="#E88B4E" stroke-width="1.2"/><path d="M0 0L-9.9 9.9" stroke="#E88B4E" stroke-width="1.2"/><path d="M0 0L-14.0 0.0" stroke="#E88B4E" stroke-width="1.2"/><path d="M0 0L-9.9 -9.9" stroke="#E88B4E" stroke-width="1.2"/><path d="M0 0L-0.0 -14.0" stroke="#E88B4E" stroke-width="1.2"/><path d="M0 0L9.9 -9.9" stroke="#E88B4E" stroke-width="1.2"/></g><g transform="translate(-38,262)"><circle r="19" fill="#F6B98A" fill-opacity="0.35" stroke="#E88B4E" stroke-width="2"/><circle r="14.5" fill="none" stroke="#E88B4E" stroke-width="1"/><path d="M0 0L14.0 0.0" stroke="#E88B4E" stroke-width="1.2"/><path d="M0 0L9.9 9.9" stroke="#E88B4E" stroke-width="1.2"/><path d="M0 0L0.0 14.0" stroke="#E88B4E" stroke-width="1.2"/><path d="M0 0L-9.9 9.9" stroke="#E88B4E" stroke-width="1.2"/><path d="M0 0L-14.0 0.0" stroke="#E88B4E" stroke-width="1.2"/><path d="M0 0L-9.9 -9.9" stroke="#E88B4E" stroke-width="1.2"/><path d="M0 0L-0.0 -14.0" stroke="#E88B4E" stroke-width="1.2"/><path d="M0 0L9.9 -9.9" stroke="#E88B4E" stroke-width="1.2"/></g><g transform="translate(112,-38)"><circle r="19" fill="#F6B98A" fill-opacity="0.35" stroke="#E88B4E" stroke-width="2"/><circle r="14.5" fill="none" stroke="#E88B4E" stroke-width="1"/><path d="M0 0L14.0 0.0" stroke="#E88B4E" stroke-width="1.2"/><path d="M0 0L9.9 9.9" stroke="#E88B4E" stroke-width="1.2"/><path d="M0 0L0.0 14.0" stroke="#E88B4E" stroke-width="1.2"/><path d="M0 0L-9.9 9.9" stroke="#E88B4E" stroke-width="1.2"/><path d="M0 0L-14.0 0.0" stroke="#E88B4E" stroke-width="1.2"/><path d="M0 0L-9.9 -9.9" stroke="#E88B4E" stroke-width="1.2"/><path d="M0 0L-0.0 -14.0" stroke="#E88B4E" stroke-width="1.2"/><path d="M0 0L9.9 -9.9" stroke="#E88B4E" stroke-width="1.2"/></g><g transform="translate(112,112)"><circle r="19" fill="#F6B98A" fill-opacity="0.35" stroke="#E88B4E" stroke-width="2"/><circle r="14.5" fill="none" stroke="#E88B4E" stroke-width="1"/><path d="M0 0L14.0 0.0" stroke="#E88B4E" stroke-width="1.2"/><path d="M0 0L9.9 9.9" stroke="#E88B4E" stroke-width="1.2"/><path d="M0 0L0.0 14.0" stroke="#E88B4E" stroke-width="1.2"/><path d="M0 0L-9.9 9.9" stroke="#E88B4E" stroke-width="1.2"/><path d="M0 0L-14.0 0.0" stroke="#E88B4E" stroke-width="1.2"/><path d="M0 0L-9.9 -9.9" stroke="#E88B4E" stroke-width="1.2"/><path d="M0 0L-0.0 -14.0" stroke="#E88B4E" stroke-width="1.2"/><path d="M0 0L9.9 -9.9" stroke="#E88B4E" stroke-width="1.2"/></g><g transform="translate(112,262)"><circle r="19" fill="#F6B98A" fill-opacity="0.35" stroke="#E88B4E" stroke-width="2"/><circle r="14.5" fill="none" stroke="#E88B4E" stroke-width="1"/><path d="M0 0L14.0 0.0" stroke="#E88B4E" stroke-width="1.2"/><path d="M0 0L9.9 9.9" stroke="#E88B4E" stroke-width="1.2"/><path d="M0 0L0.0 14.0" stroke="#E88B4E" stroke-width="1.2"/><path d="M0 0L-9.9 9.9" stroke="#E88B4E" stroke-width="1.2"/><path d="M0 0L-14.0 0.0" stroke="#E88B4E" stroke-width="1.2"/><path d="M0 0L-9.9 -9.9" stroke="#E88B4E" stroke-width="1.2"/><path d="M0 0L-0.0 -14.0" stroke="#E88B4E" stroke-width="1.2"/><path d="M0 0L9.9 -9.9" stroke="#E88B4E" stroke-width="1.2"/></g><g transform="translate(262,-38)"><circle r="19" fill="#F6B98A" fill-opacity="0.35" stroke="#E88B4E" stroke-width="2"/><circle r="14.5" fill="none" stroke="#E88B4E" stroke-width="1"/><path d="M0 0L14.0 0.0" stroke="#E88B4E" stroke-width="1.2"/><path d="M0 0L9.9 9.9" stroke="#E88B4E" stroke-width="1.2"/><path d="M0 0L0.0 14.0" stroke="#E88B4E" stroke-width="1.2"/><path d="M0 0L-9.9 9.9" stroke="#E88B4E" stroke-width="1.2"/><path d="M0 0L-14.0 0.0" stroke="#E88B4E" stroke-width="1.2"/><path d="M0 0L-9.9 -9.9" stroke="#E88B4E" stroke-width="1.2"/><path d="M0 0L-0.0 -14.0" stroke="#E88B4E" stroke-width="1.2"/><path d="M0 0L9.9 -9.9" stroke="#E88B4E" stroke-width="1.2"/></g><g transform="translate(262,112)"><circle r="19" fill="#F6B98A" fill-opacity="0.35" stroke="#E88B4E" stroke-width="2"/><circle r="14.5" fill="none" stroke="#E88B4E" stroke-width="1"/><path d="M0 0L14.0 0.0" stroke="#E88B4E" stroke-width="1.2"/><path d="M0 0L9.9 9.9" stroke="#E88B4E" stroke-width="1.2"/><path d="M0 0L0.0 14.0" stroke="#E88B4E" stroke-width="1.2"/><path d="M0 0L-9.9 9.9" stroke="#E88B4E" stroke-width="1.2"/><path d="M0 0L-14.0 0.0" stroke="#E88B4E" stroke-width="1.2"/><path d="M0 0L-9.9 -9.9" stroke="#E88B4E" stroke-width="1.2"/><path d="M0 0L-0.0 -14.0" stroke="#E88B4E" stroke-width="1.2"/><path d="M0 0L9.9 -9.9" stroke="#E88B4E" stroke-width="1.2"/></g><g transform="translate(262,262)"><circle r="19" fill="#F6B98A" fill-opacity="0.35" stroke="#E88B4E" stroke-width="2"/><circle r="14.5" fill="none" stroke="#E88B4E" stroke-width="1"/><path d="M0 0L14.0 0.0" stroke="#E88B4E" stroke-width="1.2"/><path d="M0 0L9.9 9.9" stroke="#E88B4E" stroke-width="1.2"/><path d="M0 0L0.0 14.0" stroke="#E88B4E" stroke-width="1.2"/><path d="M0 0L-9.9 9.9" stroke="#E88B4E" stroke-width="1.2"/><path d="M0 0L-14.0 0.0" stroke="#E88B4E" stroke-width="1.2"/><path d="M0 0L-9.9 -9.9" stroke="#E88B4E" stroke-width="1.2"/><path d="M0 0L-0.0 -14.0" stroke="#E88B4E" stroke-width="1.2"/><path d="M0 0L9.9 -9.9" stroke="#E88B4E" stroke-width="1.2"/></g><g transform="translate(-38,-114)"><circle r="3" fill="#D9B53E" fill-opacity="0.5"/></g><g transform="translate(-38,36)"><circle r="3" fill="#D9B53E" fill-opacity="0.5"/></g><g transform="translate(-38,186)"><circle r="3" fill="#D9B53E" fill-opacity="0.5"/></g><g transform="translate(112,-114)"><circle r="3" fill="#D9B53E" fill-opacity="0.5"/></g><g transform="translate(112,36)"><circle r="3" fill="#D9B53E" fill-opacity="0.5"/></g><g transform="translate(112,186)"><circle r="3" fill="#D9B53E" fill-opacity="0.5"/></g><g transform="translate(262,-114)"><circle r="3" fill="#D9B53E" fill-opacity="0.5"/></g><g transform="translate(262,36)"><circle r="3" fill="#D9B53E" fill-opacity="0.5"/></g><g transform="translate(262,186)"><circle r="3" fill="#D9B53E" fill-opacity="0.5"/></g><g transform="translate(-114,-38)"><circle r="3" fill="#E88B4E" fill-opacity="0.5"/></g><g transform="translate(-114,112)"><circle r="3" fill="#E88B4E" fill-opacity="0.5"/></g><g transform="translate(-114,262)"><circle r="3" fill="#E88B4E" fill-opacity="0.5"/></g><g transform="translate(36,-38)"><circle r="3" fill="#E88B4E" fill-opacity="0.5"/></g><g transform="translate(36,112)"><circle r="3" fill="#E88B4E" fill-opacity="0.5"/></g><g transform="translate(36,262)"><circle r="3" fill="#E88B4E" fill-opacity="0.5"/></g><g transform="translate(186,-38)"><circle r="3" fill="#E88B4E" fill-opacity="0.5"/></g><g transform="translate(186,112)"><circle r="3" fill="#E88B4E" fill-opacity="0.5"/></g><g transform="translate(186,262)"><circle r="3" fill="#E88B4E" fill-opacity="0.5"/></g></svg>