<svg xmlns="http://www.w3.org/2000/svg" width="170" height="170" viewBox="0 0 170 170"><rect width="170" height="170" fill="#1E1F1F"/><g transform="translate(-150,-150)"><g transform="rotate(-8)"><path d="M0 0H6L11 22H31L35 7H8" fill="none" stroke="#3F433F" stroke-width="2" stroke-linecap="round" stroke-linejoin="round"/><circle cx="14" cy="28" r="2.5" fill="none" stroke="#3F433F" stroke-width="2" stroke-linecap="round" stroke-linejoin="round"/><circle cx="28" cy="28" r="2.5" fill="none" stroke="#3F433F" stroke-width="2" stroke-linecap="round" stroke-linejoin="round"/></g></g><g transform="translate(-150,20)"><g transform="rotate(-8)"><path d="M0 0H6L11 22H31L35 7H8" fill="none" stroke="#3F433F" stroke-width="2" stroke-linecap="round" stroke-linejoin="round"/><circle cx="14" cy="28" r="2.5" fill="none" stroke="#3F433F" stroke-width="2" stroke-linecap="round" stroke-linejoin="round"/><circle cx="28" cy="28" r="2.5" fill="none" stroke="#3F433F" stroke-width="2" stroke-linecap="round" stroke-linejoin="round"/></g></g><g transform="translate(-150,190)"><g transform="rotate(-8)"><path d="M0 0H6L11 22H31L35 7H8" fill="none" stroke="#3F433F" stroke-width="2" stroke-linecap="round" stroke-linejoin="round"/><circle cx="14" cy="28" r="2.5" fill="none" stroke="#3F433F" stroke-width="2" stroke-linecap="round" stroke-linejoin="round"/><circle cx="28" cy="28" r="2.5" fill="none" stroke="#3F433F" stroke-width="2" stroke-linecap="round" stroke-linejoin="round"/></g></g><g transform="translate(20,-150)"><g transform="rotate(-8)"><path d="M0 0H6L11 22H31L35 7H8" fill="none" stroke="#3F433F" stroke-width="2" stroke-linecap="round" stroke-linejoin="round"/><circle cx="14" cy="28" r="2.5" fill="none" stroke="#3F433F" stroke-width="2" stroke-linecap="round" stroke-linejoin="round"/><circle cx="28" cy="28" r="2.5" fill="none" stroke="#3F433F" stroke-width="2" stroke-linecap="round" stroke-linejoin="round"/></g></g><g transform="translate(20,20)"><g transform="rotate(-8)"><path d="M0 0H6L11 22H31L35 7H8" fill="none" stroke="#3F433F" stroke-width="2" stroke-linecap="round" stroke-linejoin="round"/><circle cx="14" cy="28" r="2.5" fill="none" stroke="#3F433F" stroke-width="2" stroke-linecap="round" stroke-linejoin="round"/><circle cx="28" cy="28" r="2.5" fill="none" stroke="#3F433F" stroke-width="2" stroke-linecap="round" stroke-linejoin="round"/></g></g><g transform="translate(20,190)"><g transform="rotate(-8)"><path d="M0 0H6L11 22H31L35 7H8" fill="none" stroke="#3F433F" stroke-width="2" stroke-linecap="round" stroke-linejoin="round"/><circle cx="14" cy="28" r="2.5" fill="none" stroke="#3F433F" stroke-width="2" stroke-linecap="round" stroke-linejoin="round"/><circle cx="28" cy="28" r="2.5" fill="none" stroke="#3F433F" stroke-width="2" stroke-linecap="round" stroke-linejoin="round"/></g></g><g transform="translate(190,-150)"><g transform="rotate(-8)"><path d="M0 0H6L11 22H31L35 7H8" fill="none" stroke="#3F433F" stroke-width="2" stroke-linecap="round" stroke-linejoin="round"/><circle cx="14" cy="28" r="2.5" fill="none" stroke="#3F433F" stroke-width="2" stroke-linecap="round" stroke-linejoin="round"/><circle cx="28" cy="28" r="2.5" fill="none" stroke="#3F433F" stroke-width="2" stroke-linecap="round" stroke-linejoin="round"/></g></g><g transform="translate(190,20)"><g transform="rotate(-8)"><path d="M0 0H6L11 22H31L35 7H8" fill="none" stroke="#3F433F" stroke-width="2" stroke-linecap="round" stroke-linejoin="round"/><circle cx="14" cy="28" r="2.5" fill="none" stroke="#3F433F" stroke-width="2" stroke-linecap="round" stroke-linejoin="round"/><circle cx="28" cy="28" r="2.5" fill="none" stroke="#3F433F" stroke-width="2" stroke-linecap="round" stroke-linejoin="round"/></g></g><g transform="translate(190,190)"><g transform="rotate(-8)"><path d="M0 0H6L11 22H31L35 7H8" fill="none" stroke="#3F433F" stroke-width="2" stroke-linecap="round" stroke-linejoin="round"/><circle cx="14" cy="28" r="2.5" fill="none" stroke="#3F433F" stroke-width="2" stroke-linecap="round" stroke-linejoin="round"/><circle cx="28" cy="28" r="2.5" fill="none" stroke="#3F433F" stroke-width="2" stroke-linecap="round" stroke-linejoin="round"/></g></g><g transform="translate(-65,-140)"><g transform="rotate(10)"><path d="M0 8H26L24 34H2Z" fill="none" stroke="#3F433F" stroke-width="2" stroke-linecap="round" stroke-linejoin="round"/><path d="M7 8C7 0 19 0 19 8" fill="none" stroke="#3F433F" stroke-width="2" stroke-linecap="round" stroke-linejoin="round"/></g></g><g transform="translate(-65,30)"><g transform="rotate(10)"><path d="M0 8H26L24 34H2Z" fill="none" stroke="#3F433F" stroke-width="2" stroke-linecap="round" stroke-linejoin="round"/><path d="M7 8C7 0 19 0 19 8" fill="none" stroke="#3F433F" stroke-width="2" stroke-linecap="round" stroke-linejoin="round"/></g></g><g transform="translate(-65,200)"><g transform="rotate(10)"><path d="M0 8H26L24 34H2Z" fill="none" stroke="#3F433F" stroke-width="2" stroke-linecap="round" stroke-linejoin="round"/><path d="M7 8C7 0 19 0 19 8" fill="none" stroke="#3F433F" stroke-width="2" stroke-linecap="round" stroke-linejoin="round"/></g></g><g transform="translate(105,-140)"><g transform="rotate(10)"><path d="M0 8H26L24 34H2Z" fill="none" stroke="#3F433F" stroke-width="2" stroke-linecap="round" stroke-linejoin="round"/><path d="M7 8C7 0 19 0 19 8" fill="none" stroke="#3F433F" stroke-width="2" stroke-linecap="round" stroke-linejoin="round"/></g></g><g transform="translate(105,30)"><g transform="rotate(10)"><path d="M0 8H26L24 34H2Z" fill="none" stroke="#3F433F" stroke-width="2" stroke-linecap="round" stroke-linejoin="round"/><path d="M7 8C7 0 19 0 19 8" fill="none" stroke="#3F433F" stroke-width="2" stroke-linecap="round" stroke-linejoin="round"/></g></g><g transform="translate(105,200)"><g transform="rotate(10)"><path d="M0 8H26L24 34H2Z" fill="none" stroke="#3F433F" stroke-width="2" stroke-linecap="round" stroke-linejoin="round"/><path d="M7 8C7 0 19 0 19 8" fill="none" stroke="#3F433F" stroke-width="2" stroke-linecap="round" stroke-linejoin="round"/></g></g><g transform="translate(275,-140)"><g transform="rotate(10)"><path d="M0 8H26L24 34H2Z" fill="none" stroke="#3F433F" stroke-width="2" stroke-linecap="round" stroke-linejoin="round"/><path d="M7 8C7 0 19 0 19 8" fill="none" stroke="#3F433F" stroke-width="2" stroke-linecap="round" stroke-linejoin="round"/></g></g><g transform="translate(275,30)"><g transform="rotate(10)"><path d="M0 8H26L24 34H2Z" fill="none" stroke="#3F433F" stroke-width="2" stroke-linecap="round" stroke-linejoin="round"/><path d="M7 8C7 0 19 0 19 8" fill="none" stroke="#3F433F" stroke-width="2" stroke-linecap="round" stroke-linejoin="round"/></g></g><g transform="translate(275,200)"><g transform="rotate(10)"><path d="M0 8H26L24 34H2Z" fill="none" stroke="#3F433F" stroke-width="2" stroke-linecap="round" stroke-linejoin="round"/><path d="M7 8C7 0 19 0 19 8" fill="none" stroke="#3F433F" stroke-width="2" stroke-linecap="round" stroke-linejoin="round"/></g></g><g transform="translate(-110,-75)"><g transform="rotate(6)"><path d="M0 10H34L30 28H4Z" fill="none" stroke="#3F433F" stroke-width="2" stroke-linecap="round" stroke-linejoin="round"/><path d="M8 10L14 0M26 10L20 0M11 16V23M17 16V23M23 16V23" fill="none" stroke="#3F433F" stroke-width="2" stroke-linecap="round" stroke-linejoin="round"/></g></g><g transform="translate(-110,95)"><g transform="rotate(6)"><path d="M0 10H34L30 28H4Z" fill="none" stroke="#3F433F" stroke-width="2" stroke-linecap="round" stroke-linejoin="round"/><path d="M8 10L14 0M26 10L20 0M11 16V23M17 16V23M23 16V23" fill="none" stroke="#3F433F" stroke-width="2" stroke-linecap="round" stroke-linejoin="round"/></g></g><g transform="translate(-110,265)"><g transform="rotate(6)"><path d="M0 10H34L30 28H4Z" fill="none" stroke="#3F433F" stroke-width="2" stroke-linecap="round" stroke-linejoin="round"/><path d="M8 10L14 0M26 10L20 0M11 16V23M17 16V23M23 16V23" fill="none" stroke="#3F433F" stroke-width="2" stroke-linecap="round" stroke-linejoin="round"/></g></g><g transform="translate(60,-75)"><g transform="rotate(6)"><path d="M0 10H34L30 28H4Z" fill="none" stroke="#3F433F" stroke-width="2" stroke-linecap="round" stroke-linejoin="round"/><path d="M8 10L14 0M26 10L20 0M11 16V23M17 16V23M23 16V23" fill="none" stroke="#3F433F" stroke-width="2" stroke-linecap="round" stroke-linejoin="round"/></g></g><g transform="translate(60,95)"><g transform="rotate(6)"><path d="M0 10H34L30 28H4Z" fill="none" stroke="#3F433F" stroke-width="2" stroke-linecap="round" stroke-linejoin="round"/><path d="M8 10L14 0M26 10L20 0M11 16V23M17 16V23M23 16V23" fill="none" stroke="#3F433F" stroke-width="2" stroke-linecap="round" stroke-linejoin="round"/></g></g><g transform="translate(60,265)"><g transform="rotate(6)"><path d="M0 10H34L30 28H4Z" fill="none" stroke="#3F433F" stroke-width="2" stroke-linecap="round" stroke-linejoin="round"/><path d="M8 10L14 0M26 10L20 0M11 16V23M17 16V23M23 16V23" fill="none" stroke="#3F433F" stroke-width="2" stroke-linecap="round" stroke-linejoin="round"/></g></g><g transform="translate(230,-75)"><g transform="rotate(6)"><path d="M0 10H34L30 28H4Z" fill="none" stroke="#3F433F" stroke-width="2" stroke-linecap="round" stroke-linejoin="round"/><path d="M8 10L14 0M26 10L20 0M11 16V23M17 16V23M23 16V23" fill="none" stroke="#3F433F" stroke-width="2" stroke-linecap="round" stroke-linejoin="round"/></g></g><g transform="translate(230,95)"><g transform="rotate(6)"><path d="M0 10H34L30 28H4Z" fill="none" stroke="#3F433F" stroke-width="2" stroke-linecap="round" stroke-linejoin="round"/><path d="M8 10L14 0M26 10L20 0M11 16V23M17 16V23M23 16V23" fill="none" stroke="#3F433F" stroke-width="2" stroke-linecap="round" stroke-linejoin="round"/></g></g><g transform="translate(230,265)"><g transform="rotate(6)"><path d="M0 10H34L30 28H4Z" fill="none" stroke="#3F433F" stroke-width="2" stroke-linecap="round" stroke-linejoin="round"/><path d="M8 10L14 0M26 10L20 0M11 16V23M17 16V23M23 16V23" fill="none" stroke="#3F433F" stroke-width="2" stroke-linecap="round" stroke-linejoin="round"/></g></g><g transform="translate(-40,-55)"><g transform="rotate(-12)"><path d="M0 0H6L11 22H31L35 7H8" fill="none" stroke="#3F433F" stroke-width="2" stroke-linecap="round" stroke-linejoin="round"/><circle cx="14" cy="28" r="2.5" fill="none" stroke="#3F433F" stroke-width="2" stroke-linecap="round" stroke-linejoin="round"/><circle cx="28" cy="28" r="2.5" fill="none" stroke="#3F433F" stroke-width="2" stroke-linecap="round" stroke-linejoin="round"/></g></g><g transform="translate(-40,115)"><g transform="rotate(-12)"><path d="M0 0H6L11 22H31L35 7H8" fill="none" stroke="#3F433F" stroke-width="2" stroke-linecap="round" stroke-linejoin="round"/><circle cx="14" cy="28" r="2.5" fill="none" stroke="#3F433F" stroke-width="2" stroke-linecap="round" stroke-linejoin="round"/><circle cx="28" cy="28" r="2.5" fill="none" stroke="#3F433F" stroke-width="2" stroke-linecap="round" stroke-linejoin="round"/></g></g><g transform="translate(-40,285)"><g transform="rotate(-12)"><path d="M0 0H6L11 22H31L35 7H8" fill="none" stroke="#3F433F" stroke-width="2" stroke-linecap="round" stroke-linejoin="round"/><circle cx="14" cy="28" r="2.5" fill="none" stroke="#3F433F" stroke-width="2" stroke-linecap="round" stroke-linejoin="round"/><circle cx="28" cy="28" r="2.5" fill="none" stroke="#3F433F" stroke-width="2" stroke-linecap="round" stroke-linejoin="round"/></g></g><g transform="translate(130,-55)"><g transform="rotate(-12)"><path d="M0 0H6L11 22H31L35 7H8" fill="none" stroke="#3F433F" stroke-width="2" stroke-linecap="round" stroke-linejoin="round"/><circle cx="14" cy="28" r="2.5" fill="none" stroke="#3F433F" stroke-width="2" stroke-linecap="round" stroke-linejoin="round"/><circle cx="28" cy="28" r="2.5" fill="none" stroke="#3F433F" stroke-width="2" stroke-linecap="round" stroke-linejoin="round"/></g></g><g transform="translate(130,115)"><g transform="rotate(-12)"><path d="M0 0H6L11 22H31L35 7H8" fill="none" stroke="#3F433F" stroke-width="2" stroke-linecap="round" stroke-linejoin="round"/><circle cx="14" cy="28" r="2.5" fill="none" stroke="#3F433F" stroke-width="2" stroke-linecap="round" stroke-linejoin="round"/><circle cx="28" cy="28" r="2.5" fill="none" stroke="#3F433F" stroke-width="2" stroke-linecap="round" stroke-linejoin="round"/></g></g><g transform="translate(130,285)"><g transform="rotate(-12)"><path d="M0 0H6L11 22H31L35 7H8" fill="none" stroke="#3F433F" stroke-width="2" stroke-linecap="round" stroke-linejoin="round"/><circle cx="14" cy="28" r="2.5" fill="none" stroke="#3F433F" stroke-width="2" stroke-linecap="round" stroke-linejoin="round"/><circle cx="28" cy="28" r="2.5" fill="none" stroke="#3F433F" stroke-width="2" stroke-linecap="round" stroke-linejoin="round"/></g></g><g transform="translate(300,-55)"><g transform="rotate(-12)"><path d="M0 0H6L11 22H31L35 7H8" fill="none" stroke="#3F433F" stroke-width="2" stroke-linecap="round" stroke-linejoin="round"/><circle cx="14" cy="28" r="2.5" fill="none" stroke="#3F433F" stroke-width="2" stroke-linecap="round" stroke-linejoin="round"/><circle cx="28" cy="28" r="2.5" fill="none" stroke="#3F433F" stroke-width="2" stroke-linecap="round" stroke-linejoin="round"/></g></g><g transform="translate(300,115)"><g transform="rotate(-12)"><path d="M0 0H6L11 22H31L35 7H8" fill="none" stroke="#3F433F" stroke-width="2" stroke-linecap="round" stroke-linejoin="round"/><circle cx="14" cy="28" r="2.5" fill="none" stroke="#3F433F" stroke-width="2" stroke-linecap="round" stroke-linejoin="round"/><circle cx="28" cy="28" r="2.5" fill="none" stroke="#3F433F" stroke-width="2" stroke-linecap="round" stroke-linejoin="round"/></g></g><g transform="translate(300,285)"><g transform="rotate(-12)"><path d="M0 0H6L11 22H31L35 7H8" fill="none" stroke="#3F433F" stroke-width="2" stroke-linecap="round" stroke-linejoin="round"/><circle cx="14" cy="28" r="2.5" fill="none" stroke="#3F433F" stroke-width="2" stroke-linecap="round" stroke-linejoin="round"/><circle cx="28" cy="28" r="2.5" fill="none" stroke="#3F433F" stroke-width="2" stroke-linecap="round" stroke-linejoin="round"/></g></g><g transform="translate(-155,-40)"><g transform="rotate(12)"><path d="M0 8H26L24 34H2Z" fill="none" stroke="#3F433F" stroke-width="2" stroke-linecap="round" stroke-linejoin="round"/><path d="M7 8C7 0 19 0 19 8" fill="none" stroke="#3F433F" stroke-width="2" stroke-linecap="round" stroke-linejoin="round"/></g></g><g transform="translate(-155,130)"><g transform="rotate(12)"><path d="M0 8H26L24 34H2Z" fill="none" stroke="#3F433F" stroke-width="2" stroke-linecap="round" stroke-linejoin="round"/><path d="M7 8C7 0 19 0 19 8" fill="none" stroke="#3F433F" stroke-width="2" stroke-linecap="round" stroke-linejoin="round"/></g></g><g transform="translate(-155,300)"><g transform="rotate(12)"><path d="M0 8H26L24 34H2Z" fill="none" stroke="#3F433F" stroke-width="2" stroke-linecap="round" stroke-linejoin="round"/><path d="M7 8C7 0 19 0 19 8" fill="none" stroke="#3F433F" stroke-width="2" stroke-linecap="round" stroke-linejoin="round"/></g></g><g transform="translate(15,-40)"><g transform="rotate(12)"><path d="M0 8H26L24 34H2Z" fill="none" stroke="#3F433F" stroke-width="2" stroke-linecap="round" stroke-linejoin="round"/><path d="M7 8C7 0 19 0 19 8" fill="none" stroke="#3F433F" stroke-width="2" stroke-linecap="round" stroke-linejoin="round"/></g></g><g transform="translate(15,130)"><g transform="rotate(12)"><path d="M0 8H26L24 34H2Z" fill="none" stroke="#3F433F" stroke-width="2" stroke-linecap="round" stroke-linejoin="round"/><path d="M7 8C7 0 19 0 19 8" fill="none" stroke="#3F433F" stroke-width="2" stroke-linecap="round" stroke-linejoin="round"/></g></g><g transform="translate(15,300)"><g transform="rotate(12)"><path d="M0 8H26L24 34H2Z" fill="none" stroke="#3F433F" stroke-width="2" stroke-linecap="round" stroke-linejoin="round"/><path d="M7 8C7 0 19 0 19 8" fill="none" stroke="#3F433F" stroke-width="2" stroke-linecap="round" stroke-linejoin="round"/></g></g><g transform="translate(185,-40)"><g transform="rotate(12)"><path d="M0 8H26L24 34H2Z" fill="none" stroke="#3F433F" stroke-width="2" stroke-linecap="round" stroke-linejoin="round"/><path d="M7 8C7 0 19 0 19 8" fill="none" stroke="#3F433F" stroke-width="2" stroke-linecap="round" stroke-linejoin="round"/></g></g><g transform="translate(185,130)"><g transform="rotate(12)"><path d="M0 8H26L24 34H2Z" fill="none" stroke="#3F433F" stroke-width="2" stroke-linecap="round" stroke-linejoin="round"/><path d="M7 8C7 0 19 0 19 8" fill="none" stroke="#3F433F" stroke-width="2" stroke-linecap="round" stroke-linejoin="round"/></g></g><g transform="translate(185,300)"><g transform="rotate(12)"><path d="M0 8H26L24 34H2Z" fill="none" stroke="#3F433F" stroke-width="2" stroke-linecap="round" stroke-linejoin="round"/><path d="M7 8C7 0 19 0 19 8" fill="none" stroke="#3F433F" stroke-width="2" stroke-linecap="round" stroke-linejoin="round"/></g></g></svg>