<svg xmlns="http://www.w3.org/2000/svg" width="200" height="200" viewBox="0 0 200 200"><rect width="200" height="200" fill="#E8DBC4"/><circle cx="47.6" cy="108.8" r="1.0" fill="#CDB892" fill-opacity="0.70"/><circle cx="125.1" cy="13.1" r="0.6" fill="#CDB892" fill-opacity="0.82"/><circle cx="51.9" cy="46.9" r="1.6" fill="#CDB892" fill-opacity="0.64"/><circle cx="167.3" cy="95.3" r="1.2" fill="#CDB892" fill-opacity="0.48"/><circle cx="127.0" cy="173.6" r="1.1" fill="#CDB892" fill-opacity="0.77"/><circle cx="134.3" cy="12.8" r="1.4" fill="#CDB892" fill-opacity="0.70"/><circle cx="60.3" cy="6.2" r="1.5" fill="#CDB892" fill-opacity="0.64"/><circle cx="143.8" cy="175.8" r="1.3" fill="#CDB892" fill-opacity="0.86"/><circle cx="79.0" cy="160.2" r="1.0" fill="#CDB892" fill-opacity="0.87"/><circle cx="175.8" cy="19.5" r="0.7" fill="#CDB892" fill-opacity="0.51"/><circle cx="193.1" cy="87.2" r="1.2" fill="#CDB892" fill-opacity="0.55"/><circle cx="101.4" cy="77.2" r="1.0" fill="#CDB892" fill-opacity="0.69"/><circle cx="116.9" cy="180.8" r="1.3" fill="#CDB892" fill-opacity="0.86"/><circle cx="171.3" cy="198.2" r="1.3" fill="#CDB892" fill-opacity="0.48"/><circle cx="172.1" cy="192.9" r="1.5" fill="#CDB892" fill-opacity="0.68"/><circle cx="142.8" cy="42.2" r="1.4" fill="#CDB892" fill-opacity="0.69"/><circle cx="57.0" cy="12.7" r="1.5" fill="#CDB892" fill-opacity="0.89"/><circle cx="17.7" cy="160.1" r="1.0" fill="#CDB892" fill-opacity="0.48"/><circle cx="58.8" cy="153.8" r="1.5" fill="#CDB892" fill-opacity="0.42"/><circle cx="122.9" cy="9.0" r="1.3" fill="#CDB892" fill-opacity="0.57"/><circle cx="176.2" cy="196.1" r="1.1" fill="#CDB892" fill-opacity="0.90"/><circle cx="61.9" cy="15.4" r="1.2" fill="#CDB892" fill-opacity="0.42"/><circle cx="39.5" cy="81.6" r="1.2" fill="#CDB892" fill-opacity="0.48"/><circle cx="8.5" cy="173.6" r="0.9" fill="#CDB892" fill-opacity="0.88"/><circle cx="179.3" cy="75.6" r="1.1" fill="#CDB892" fill-opacity="0.66"/><circle cx="128.8" cy="119.1" r="1.2" fill="#CDB892" fill-opacity="0.71"/><circle cx="188.1" cy="101.4" r="1.0" fill="#CDB892" fill-opacity="0.76"/><circle cx="47.5" cy="60.2" r="1.6" fill="#CDB892" fill-opacity="0.66"/><circle cx="109.7" cy="2.3" r="1.0" fill="#CDB892" fill-opacity="0.69"/><circle cx="4.0" cy="123.2" r="1.2" fill="#CDB892" fill-opacity="0.43"/><circle cx="125.5" cy="93.3" r="1.3" fill="#CDB892" fill-opacity="0.58"/><circle cx="141.4" cy="147.6" r="0.6" fill="#CDB892" fill-opacity="0.43"/><circle cx="135.2" cy="192.7" r="0.9" fill="#CDB892" fill-opacity="0.63"/><circle cx="118.5" cy="64.0" r="1.0" fill="#CDB892" fill-opacity="0.56"/><circle cx="73.8" cy="119.1" r="0.9" fill="#CDB892" fill-opacity="0.59"/><circle cx="154.5" cy="5.4" r="1.2" fill="#CDB892" fill-opacity="0.77"/><circle cx="62.0" cy="44.5" r="1.4" fill="#CDB892" fill-opacity="0.52"/><circle cx="37.5" cy="87.0" r="1.3" fill="#CDB892" fill-opacity="0.45"/><circle cx="64.4" cy="66.8" r="1.4" fill="#CDB892" fill-opacity="0.62"/><circle cx="171.1" cy="33.9" r="0.9" fill="#CDB892" fill-opacity="0.73"/><circle cx="177.0" cy="90.2" r="0.8" fill="#CDB892" fill-opacity="0.46"/><circle cx="105.9" cy="38.2" r="1.4" fill="#CDB892" fill-opacity="0.82"/><circle cx="36.7" cy="55.7" r="1.4" fill="#CDB892" fill-opacity="0.72"/><circle cx="161.3" cy="69.1" r="0.7" fill="#CDB892" fill-opacity="0.55"/><circle cx="158.8" cy="54.2" r="0.9" fill="#CDB892" fill-opacity="0.61"/><circle cx="84.0" cy="81.9" r="1.5" fill="#CDB892" fill-opacity="0.48"/><circle cx="0.9" cy="188.7" r="1.5" fill="#CDB892" fill-opacity="0.89"/><circle cx="86.9" cy="190.0" r="1.5" fill="#CDB892" fill-opacity="0.51"/><circle cx="149.1" cy="167.3" r="1.3" fill="#CDB892" fill-opacity="0.66"/><circle cx="57.8" cy="68.2" r="0.8" fill="#CDB892" fill-opacity="0.43"/><circle cx="117.7" cy="57.4" r="1.4" fill="#CDB892" fill-opacity="0.42"/><circle cx="180.7" cy="138.7" r="1.5" fill="#CDB892" fill-opacity="0.85"/><circle cx="179.9" cy="115.4" r="0.6" fill="#CDB892" fill-opacity="0.77"/><circle cx="34.4" cy="60.0" r="1.3" fill="#CDB892" fill-opacity="0.66"/><circle cx="82.8" cy="187.8" r="1.2" fill="#CDB892" fill-opacity="0.57"/><circle cx="50.5" cy="172.3" r="1.1" fill="#CDB892" fill-opacity="0.79"/><circle cx="70.4" cy="39.5" r="1.1" fill="#CDB892" fill-opacity="0.81"/><circle cx="34.3" cy="158.3" r="1.5" fill="#CDB892" fill-opacity="0.80"/><circle cx="164.7" cy="1.5" r="1.2" fill="#CDB892" fill-opacity="0.83"/><circle cx="10.0" cy="54.3" r="0.9" fill="#CDB892" fill-opacity="0.66"/><circle cx="84.6" cy="94.6" r="1.4" fill="#CDB892" fill-opacity="0.40"/><circle cx="11.0" cy="25.4" r="0.7" fill="#CDB892" fill-opacity="0.43"/><circle cx="194.9" cy="170.9" r="0.7" fill="#CDB892" fill-opacity="0.65"/><circle cx="63.2" cy="62.9" r="1.0" fill="#CDB892" fill-opacity="0.72"/><circle cx="117.3" cy="72.2" r="0.8" fill="#CDB892" fill-opacity="0.56"/><circle cx="24.8" cy="111.1" r="1.3" fill="#CDB892" fill-opacity="0.59"/><circle cx="16.0" cy="35.7" r="1.0" fill="#CDB892" fill-opacity="0.70"/><circle cx="156.5" cy="76.1" r="1.4" fill="#CDB892" fill-opacity="0.71"/><circle cx="86.3" cy="74.5" r="1.1" fill="#CDB892" fill-opacity="0.75"/><circle cx="84.1" cy="138.8" r="1.1" fill="#CDB892" fill-opacity="0.52"/><circle cx="107.2" cy="139.0" r="0.7" fill="#CDB892" fill-opacity="0.61"/><circle cx="85.2" cy="175.9" r="1.5" fill="#CDB892" fill-opacity="0.59"/><circle cx="179.6" cy="158.2" r="0.9" fill="#CDB892" fill-opacity="0.63"/><circle cx="24.6" cy="162.6" r="1.3" fill="#CDB892" fill-opacity="0.84"/><circle cx="158.5" cy="133.5" r="1.3" fill="#CDB892" fill-opacity="0.68"/><circle cx="20.6" cy="117.6" r="0.6" fill="#CDB892" fill-opacity="0.47"/><circle cx="154.9" cy="8.9" r="0.7" fill="#CDB892" fill-opacity="0.45"/><circle cx="176.1" cy="35.8" r="0.6" fill="#CDB892" fill-opacity="0.82"/><circle cx="24.3" cy="168.8" r="1.3" fill="#CDB892" fill-opacity="0.82"/><circle cx="190.5" cy="115.8" r="1.4" fill="#CDB892" fill-opacity="0.42"/><circle cx="153.5" cy="102.3" r="1.3" fill="#CDB892" fill-opacity="0.45"/><circle cx="149.8" cy="186.9" r="0.7" fill="#CDB892" fill-opacity="0.56"/><circle cx="112.8" cy="165.6" r="0.8" fill="#CDB892" fill-opacity="0.49"/><circle cx="50.0" cy="123.2" r="1.4" fill="#CDB892" fill-opacity="0.60"/><circle cx="73.5" cy="79.3" r="1.0" fill="#CDB892" fill-opacity="0.61"/><circle cx="16.7" cy="100.1" r="1.6" fill="#CDB892" fill-opacity="0.61"/><circle cx="149.5" cy="32.1" r="1.3" fill="#CDB892" fill-opacity="0.78"/><circle cx="134.8" cy="103.4" r="1.1" fill="#CDB892" fill-opacity="0.72"/><circle cx="179.5" cy="29.9" r="0.7" fill="#CDB892" fill-opacity="0.77"/><circle cx="183.3" cy="103.5" r="1.0" fill="#CDB892" fill-opacity="0.76"/><g transform="translate(-170,-160)"><g transform="rotate(-30)"><path d="M0 0C6-8 18-8 24 0C18 8 6 8 0 0Z" fill="none" stroke="#BFA57C" stroke-width="1.5"/><path d="M2 0H22" stroke="#BFA57C" stroke-width="1"/></g></g><g transform="translate(-170,40)"><g transform="rotate(-30)"><path d="M0 0C6-8 18-8 24 0C18 8 6 8 0 0Z" fill="none" stroke="#BFA57C" stroke-width="1.5"/><path d="M2 0H22" stroke="#BFA57C" stroke-width="1"/></g></g><g transform="translate(-170,240)"><g transform="rotate(-30)"><path d="M0 0C6-8 18-8 24 0C18 8 6 8 0 0Z" fill="none" stroke="#BFA57C" stroke-width="1.5"/><path d="M2 0H22" stroke="#BFA57C" stroke-width="1"/></g></g><g transform="translate(30,-160)"><g transform="rotate(-30)"><path d="M0 0C6-8 18-8 24 0C18 8 6 8 0 0Z" fill="none" stroke="#BFA57C" stroke-width="1.5"/><path d="M2 0H22" stroke="#BFA57C" stroke-width="1"/></g></g><g transform="translate(30,40)"><g transform="rotate(-30)"><path d="M0 0C6-8 18-8 24 0C18 8 6 8 0 0Z" fill="none" stroke="#BFA57C" stroke-width="1.5"/><path d="M2 0H22" stroke="#BFA57C" stroke-width="1"/></g></g><g transform="translate(30,240)"><g transform="rotate(-30)"><path d="M0 0C6-8 18-8 24 0C18 8 6 8 0 0Z" fill="none" stroke="#BFA57C" stroke-width="1.5"/><path d="M2 0H22" stroke="#BFA57C" stroke-width="1"/></g></g><g transform="translate(230,-160)"><g transform="rotate(-30)"><path d="M0 0C6-8 18-8 24 0C18 8 6 8 0 0Z" fill="none" stroke="#BFA57C" stroke-width="1.5"/><path d="M2 0H22" stroke="#BFA57C" stroke-width="1"/></g></g><g transform="translate(230,40)"><g transform="rotate(-30)"><path d="M0 0C6-8 18-8 24 0C18 8 6 8 0 0Z" fill="none" stroke="#BFA57C" stroke-width="1.5"/><path d="M2 0H22" stroke="#BFA57C" stroke-width="1"/></g></g><g transform="translate(230,240)"><g transform="rotate(-30)"><path d="M0 0C6-8 18-8 24 0C18 8 6 8 0 0Z" fill="none" stroke="#BFA57C" stroke-width="1.5"/><path d="M2 0H22" stroke="#BFA57C" stroke-width="1"/></g></g><g transform="translate(-70,-110)"><g transform="rotate(20)"><path d="M0 0C6-8 18-8 24 0C18 8 6 8 0 0Z" fill="none" stroke="#BFA57C" stroke-width="1.5"/><path d="M2 0H22" stroke="#BFA57C" stroke-width="1"/></g></g><g transform="translate(-70,90)"><g transform="rotate(20)"><path d="M0 0C6-8 18-8 24 0C18 8 6 8 0 0Z" fill="none" stroke="#BFA57C" stroke-width="1.5"/><path d="M2 0H22" stroke="#BFA57C" stroke-width="1"/></g></g><g transform="translate(-70,290)"><g transform="rotate(20)"><path d="M0 0C6-8 18-8 24 0C18 8 6 8 0 0Z" fill="none" stroke="#BFA57C" stroke-width="1.5"/><path d="M2 0H22" stroke="#BFA57C" stroke-width="1"/></g></g><g transform="translate(130,-110)"><g transform="rotate(20)"><path d="M0 0C6-8 18-8 24 0C18 8 6 8 0 0Z" fill="none" stroke="#BFA57C" stroke-width="1.5"/><path d="M2 0H22" stroke="#BFA57C" stroke-width="1"/></g></g><g transform="translate(130,90)"><g transform="rotate(20)"><path d="M0 0C6-8 18-8 24 0C18 8 6 8 0 0Z" fill="none" stroke="#BFA57C" stroke-width="1.5"/><path d="M2 0H22" stroke="#BFA57C" stroke-width="1"/></g></g><g transform="translate(130,290)"><g transform="rotate(20)"><path d="M0 0C6-8 18-8 24 0C18 8 6 8 0 0Z" fill="none" stroke="#BFA57C" stroke-width="1.5"/><path d="M2 0H22" stroke="#BFA57C" stroke-width="1"/></g></g><g transform="translate(330,-110)"><g transform="rotate(20)"><path d="M0 0C6-8 18-8 24 0C18 8 6 8 0 0Z" fill="none" stroke="#BFA57C" stroke-width="1.5"/><path d="M2 0H22" stroke="#BFA57C" stroke-width="1"/></g></g><g transform="translate(330,90)"><g transform="rotate(20)"><path d="M0 0C6-8 18-8 24 0C18 8 6 8 0 0Z" fill="none" stroke="#BFA57C" stroke-width="1.5"/><path d="M2 0H22" stroke="#BFA57C" stroke-width="1"/></g></g><g transform="translate(330,290)"><g transform="rotate(20)"><path d="M0 0C6-8 18-8 24 0C18 8 6 8 0 0Z" fill="none" stroke="#BFA57C" stroke-width="1.5"/><path d="M2 0H22" stroke="#BFA57C" stroke-width="1"/></g></g><g transform="translate(-130,-40)"><g transform="rotate(60)"><path d="M0 0C6-8 18-8 24 0C18 8 6 8 0 0Z" fill="none" stroke="#BFA57C" stroke-width="1.5"/><path d="M2 0H22" stroke="#BFA57C" stroke-width="1"/></g></g><g transform="translate(-130,160)"><g transform="rotate(60)"><path d="M0 0C6-8 18-8 24 0C18 8 6 8 0 0Z" fill="none" stroke="#BFA57C" stroke-width="1.5"/><path d="M2 0H22" stroke="#BFA57C" stroke-width="1"/></g></g><g transform="translate(-130,360)"><g transform="rotate(60)"><path d="M0 0C6-8 18-8 24 0C18 8 6 8 0 0Z" fill="none" stroke="#BFA57C" stroke-width="1.5"/><path d="M2 0H22" stroke="#BFA57C" stroke-width="1"/></g></g><g transform="translate(70,-40)"><g transform="rotate(60)"><path d="M0 0C6-8 18-8 24 0C18 8 6 8 0 0Z" fill="none" stroke="#BFA57C" stroke-width="1.5"/><path d="M2 0H22" stroke="#BFA57C" stroke-width="1"/></g></g><g transform="translate(70,160)"><g transform="rotate(60)"><path d="M0 0C6-8 18-8 24 0C18 8 6 8 0 0Z" fill="none" stroke="#BFA57C" stroke-width="1.5"/><path d="M2 0H22" stroke="#BFA57C" stroke-width="1"/></g></g><g transform="translate(70,360)"><g transform="rotate(60)"><path d="M0 0C6-8 18-8 24 0C18 8 6 8 0 0Z" fill="none" stroke="#BFA57C" stroke-width="1.5"/><path d="M2 0H22" stroke="#BFA57C" stroke-width="1"/></g></g><g transform="translate(270,-40)"><g transform="rotate(60)"><path d="M0 0C6-8 18-8 24 0C18 8 6 8 0 0Z" fill="none" stroke="#BFA57C" stroke-width="1.5"/><path d="M2 0H22" stroke="#BFA57C" stroke-width="1"/></g></g><g transform="translate(270,160)"><g transform="rotate(60)"><path d="M0 0C6-8 18-8 24 0C18 8 6 8 0 0Z" fill="none" stroke="#BFA57C" stroke-width="1.5"/><path d="M2 0H22" stroke="#BFA57C" stroke-width="1"/></g></g><g transform="translate(270,360)"><g transform="rotate(60)"><path d="M0 0C6-8 18-8 24 0C18 8 6 8 0 0Z" fill="none" stroke="#BFA57C" stroke-width="1.5"/><path d="M2 0H22" stroke="#BFA57C" stroke-width="1"/></g></g><g transform="translate(-30,-180)"><g transform="rotate(-70)"><path d="M0 0C6-8 18-8 24 0C18 8 6 8 0 0Z" fill="none" stroke="#BFA57C" stroke-width="1.5"/><path d="M2 0H22" stroke="#BFA57C" stroke-width="1"/></g></g><g transform="translate(-30,20)"><g transform="rotate(-70)"><path d="M0 0C6-8 18-8 24 0C18 8 6 8 0 0Z" fill="none" stroke="#BFA57C" stroke-width="1.5"/><path d="M2 0H22" stroke="#BFA57C" stroke-width="1"/></g></g><g transform="translate(-30,220)"><g transform="rotate(-70)"><path d="M0 0C6-8 18-8 24 0C18 8 6 8 0 0Z" fill="none" stroke="#BFA57C" stroke-width="1.5"/><path d="M2 0H22" stroke="#BFA57C" stroke-width="1"/></g></g><g transform="translate(170,-180)"><g transform="rotate(-70)"><path d="M0 0C6-8 18-8 24 0C18 8 6 8 0 0Z" fill="none" stroke="#BFA57C" stroke-width="1.5"/><path d="M2 0H22" stroke="#BFA57C" stroke-width="1"/></g></g><g transform="translate(170,20)"><g transform="rotate(-70)"><path d="M0 0C6-8 18-8 24 0C18 8 6 8 0 0Z" fill="none" stroke="#BFA57C" stroke-width="1.5"/><path d="M2 0H22" stroke="#BFA57C" stroke-width="1"/></g></g><g transform="translate(170,220)"><g transform="rotate(-70)"><path d="M0 0C6-8 18-8 24 0C18 8 6 8 0 0Z" fill="none" stroke="#BFA57C" stroke-width="1.5"/><path d="M2 0H22" stroke="#BFA57C" stroke-width="1"/></g></g><g transform="translate(370,-180)"><g transform="rotate(-70)"><path d="M0 0C6-8 18-8 24 0C18 8 6 8 0 0Z" fill="none" stroke="#BFA57C" stroke-width="1.5"/><path d="M2 0H22" stroke="#BFA57C" stroke-width="1"/></g></g><g transform="translate(370,20)"><g transform="rotate(-70)"><path d="M0 0C6-8 18-8 24 0C18 8 6 8 0 0Z" fill="none" stroke="#BFA57C" stroke-width="1.5"/><path d="M2 0H22" stroke="#BFA57C" stroke-width="1"/></g></g><g transform="translate(370,220)"><g transform="rotate(-70)"><path d="M0 0C6-8 18-8 24 0C18 8 6 8 0 0Z" fill="none" stroke="#BFA57C" stroke-width="1.5"/><path d="M2 0H22" stroke="#BFA57C" stroke-width="1"/></g></g></svg>