<svg xmlns="http://www.w3.org/2000/svg" width="96" height="96" viewBox="0 0 96 96"><rect width="96" height="96" fill="#F4F1EA"/><rect x="0.5" y="0.5" width="95" height="95" fill="none" stroke="#E0DACD"/><path d="M0 22A22 22 0 0 0 22 0M74 0A22 22 0 0 0 96 22M96 74A22 22 0 0 0 74 96M22 96A22 22 0 0 0 0 74" fill="none" stroke="#8FBCC4" stroke-opacity="0.55" stroke-width="1.5"/><ellipse cx="48" cy="34" rx="6" ry="12" fill="none" stroke="#8FBCC4" stroke-opacity="0.55" stroke-width="1.5"/><ellipse cx="48" cy="62" rx="6" ry="12" fill="none" stroke="#8FBCC4" stroke-opacity="0.55" stroke-width="1.5"/><ellipse cx="34" cy="48" rx="12" ry="6" fill="none" stroke="#8FBCC4" stroke-opacity="0.55" stroke-width="1.5"/><ellipse cx="62" cy="48" rx="12" ry="6" fill="none" stroke="#8FBCC4" stroke-opacity="0.55" stroke-width="1.5"/><circle cx="48" cy="48" r="4" fill="#E9B949" fill-opacity="0.5"/></svg>