<svg xmlns="http://www.w3.org/2000/svg" width="180" height="180" viewBox="0 0 180 180"><rect width="180" height="180" fill="#F2EEE4"/><g transform="translate(-150,-140)"><g transform="rotate(-20)"><path d="M0 0L6 30L12 0Z" fill="#F0A06A" fill-opacity="0.3" stroke="#E08A55" stroke-width="1.6" stroke-linejoin="round"/><path d="M6 0L2-9M6 0V-10M6 0L10-9" stroke="#79A86B" stroke-width="1.6" stroke-linecap="round"/></g></g><g transform="translate(-150,40)"><g transform="rotate(-20)"><path d="M0 0L6 30L12 0Z" fill="#F0A06A" fill-opacity="0.3" stroke="#E08A55" stroke-width="1.6" stroke-linejoin="round"/><path d="M6 0L2-9M6 0V-10M6 0L10-9" stroke="#79A86B" stroke-width="1.6" stroke-linecap="round"/></g></g><g transform="translate(-150,220)"><g transform="rotate(-20)"><path d="M0 0L6 30L12 0Z" fill="#F0A06A" fill-opacity="0.3" stroke="#E08A55" stroke-width="1.6" stroke-linejoin="round"/><path d="M6 0L2-9M6 0V-10M6 0L10-9" stroke="#79A86B" stroke-width="1.6" stroke-linecap="round"/></g></g><g transform="translate(30,-140)"><g transform="rotate(-20)"><path d="M0 0L6 30L12 0Z" fill="#F0A06A" fill-opacity="0.3" stroke="#E08A55" stroke-width="1.6" stroke-linejoin="round"/><path d="M6 0L2-9M6 0V-10M6 0L10-9" stroke="#79A86B" stroke-width="1.6" stroke-linecap="round"/></g></g><g transform="translate(30,40)"><g transform="rotate(-20)"><path d="M0 0L6 30L12 0Z" fill="#F0A06A" fill-opacity="0.3" stroke="#E08A55" stroke-width="1.6" stroke-linejoin="round"/><path d="M6 0L2-9M6 0V-10M6 0L10-9" stroke="#79A86B" stroke-width="1.6" stroke-linecap="round"/></g></g><g transform="translate(30,220)"><g transform="rotate(-20)"><path d="M0 0L6 30L12 0Z" fill="#F0A06A" fill-opacity="0.3" stroke="#E08A55" stroke-width="1.6" stroke-linejoin="round"/><path d="M6 0L2-9M6 0V-10M6 0L10-9" stroke="#79A86B" stroke-width="1.6" stroke-linecap="round"/></g></g><g transform="translate(210,-140)"><g transform="rotate(-20)"><path d="M0 0L6 30L12 0Z" fill="#F0A06A" fill-opacity="0.3" stroke="#E08A55" stroke-width="1.6" stroke-linejoin="round"/><path d="M6 0L2-9M6 0V-10M6 0L10-9" stroke="#79A86B" stroke-width="1.6" stroke-linecap="round"/></g></g><g transform="translate(210,40)"><g transform="rotate(-20)"><path d="M0 0L6 30L12 0Z" fill="#F0A06A" fill-opacity="0.3" stroke="#E08A55" stroke-width="1.6" stroke-linejoin="round"/><path d="M6 0L2-9M6 0V-10M6 0L10-9" stroke="#79A86B" stroke-width="1.6" stroke-linecap="round"/></g></g><g transform="translate(210,220)"><g transform="rotate(-20)"><path d="M0 0L6 30L12 0Z" fill="#F0A06A" fill-opacity="0.3" stroke="#E08A55" stroke-width="1.6" stroke-linejoin="round"/><path d="M6 0L2-9M6 0V-10M6 0L10-9" stroke="#79A86B" stroke-width="1.6" stroke-linecap="round"/></g></g><g transform="translate(-70,-140)"><g transform="rotate(15)"><ellipse cx="0" cy="0" rx="9" ry="16" fill="#A58BBE" fill-opacity="0.3" stroke="#957BAE" stroke-width="1.6"/><path d="M-6-13C-2-19 2-19 6-13M0-17V-22" stroke="#79A86B" stroke-width="1.6" fill="none" stroke-linecap="round"/></g></g><g transform="translate(-70,40)"><g transform="rotate(15)"><ellipse cx="0" cy="0" rx="9" ry="16" fill="#A58BBE" fill-opacity="0.3" stroke="#957BAE" stroke-width="1.6"/><path d="M-6-13C-2-19 2-19 6-13M0-17V-22" stroke="#79A86B" stroke-width="1.6" fill="none" stroke-linecap="round"/></g></g><g transform="translate(-70,220)"><g transform="rotate(15)"><ellipse cx="0" cy="0" rx="9" ry="16" fill="#A58BBE" fill-opacity="0.3" stroke="#957BAE" stroke-width="1.6"/><path d="M-6-13C-2-19 2-19 6-13M0-17V-22" stroke="#79A86B" stroke-width="1.6" fill="none" stroke-linecap="round"/></g></g><g transform="translate(110,-140)"><g transform="rotate(15)"><ellipse cx="0" cy="0" rx="9" ry="16" fill="#A58BBE" fill-opacity="0.3" stroke="#957BAE" stroke-width="1.6"/><path d="M-6-13C-2-19 2-19 6-13M0-17V-22" stroke="#79A86B" stroke-width="1.6" fill="none" stroke-linecap="round"/></g></g><g transform="translate(110,40)"><g transform="rotate(15)"><ellipse cx="0" cy="0" rx="9" ry="16" fill="#A58BBE" fill-opacity="0.3" stroke="#957BAE" stroke-width="1.6"/><path d="M-6-13C-2-19 2-19 6-13M0-17V-22" stroke="#79A86B" stroke-width="1.6" fill="none" stroke-linecap="round"/></g></g><g transform="translate(110,220)"><g transform="rotate(15)"><ellipse cx="0" cy="0" rx="9" ry="16" fill="#A58BBE" fill-opacity="0.3" stroke="#957BAE" stroke-width="1.6"/><path d="M-6-13C-2-19 2-19 6-13M0-17V-22" stroke="#79A86B" stroke-width="1.6" fill="none" stroke-linecap="round"/></g></g><g transform="translate(290,-140)"><g transform="rotate(15)"><ellipse cx="0" cy="0" rx="9" ry="16" fill="#A58BBE" fill-opacity="0.3" stroke="#957BAE" stroke-width="1.6"/><path d="M-6-13C-2-19 2-19 6-13M0-17V-22" stroke="#79A86B" stroke-width="1.6" fill="none" stroke-linecap="round"/></g></g><g transform="translate(290,40)"><g transform="rotate(15)"><ellipse cx="0" cy="0" rx="9" ry="16" fill="#A58BBE" fill-opacity="0.3" stroke="#957BAE" stroke-width="1.6"/><path d="M-6-13C-2-19 2-19 6-13M0-17V-22" stroke="#79A86B" stroke-width="1.6" fill="none" stroke-linecap="round"/></g></g><g transform="translate(290,220)"><g transform="rotate(15)"><ellipse cx="0" cy="0" rx="9" ry="16" fill="#A58BBE" fill-opacity="0.3" stroke="#957BAE" stroke-width="1.6"/><path d="M-6-13C-2-19 2-19 6-13M0-17V-22" stroke="#79A86B" stroke-width="1.6" fill="none" stroke-linecap="round"/></g></g><g transform="translate(-120,-60)"><g transform="rotate(-10)"><path d="M0 0C10-8 30-8 40 0C30 6 10 6 0 0Z" fill="#9CC98A" fill-opacity="0.25" stroke="#79A86B" stroke-width="1.6"/><circle cx="12" cy="-1" r="2.5" fill="#79A86B" fill-opacity="0.5"/><circle cx="20" cy="-1" r="2.5" fill="#79A86B" fill-opacity="0.5"/><circle cx="28" cy="-1" r="2.5" fill="#79A86B" fill-opacity="0.5"/></g></g><g transform="translate(-120,120)"><g transform="rotate(-10)"><path d="M0 0C10-8 30-8 40 0C30 6 10 6 0 0Z" fill="#9CC98A" fill-opacity="0.25" stroke="#79A86B" stroke-width="1.6"/><circle cx="12" cy="-1" r="2.5" fill="#79A86B" fill-opacity="0.5"/><circle cx="20" cy="-1" r="2.5" fill="#79A86B" fill-opacity="0.5"/><circle cx="28" cy="-1" r="2.5" fill="#79A86B" fill-opacity="0.5"/></g></g><g transform="translate(-120,300)"><g transform="rotate(-10)"><path d="M0 0C10-8 30-8 40 0C30 6 10 6 0 0Z" fill="#9CC98A" fill-opacity="0.25" stroke="#79A86B" stroke-width="1.6"/><circle cx="12" cy="-1" r="2.5" fill="#79A86B" fill-opacity="0.5"/><circle cx="20" cy="-1" r="2.5" fill="#79A86B" fill-opacity="0.5"/><circle cx="28" cy="-1" r="2.5" fill="#79A86B" fill-opacity="0.5"/></g></g><g transform="translate(60,-60)"><g transform="rotate(-10)"><path d="M0 0C10-8 30-8 40 0C30 6 10 6 0 0Z" fill="#9CC98A" fill-opacity="0.25" stroke="#79A86B" stroke-width="1.6"/><circle cx="12" cy="-1" r="2.5" fill="#79A86B" fill-opacity="0.5"/><circle cx="20" cy="-1" r="2.5" fill="#79A86B" fill-opacity="0.5"/><circle cx="28" cy="-1" r="2.5" fill="#79A86B" fill-opacity="0.5"/></g></g><g transform="translate(60,120)"><g transform="rotate(-10)"><path d="M0 0C10-8 30-8 40 0C30 6 10 6 0 0Z" fill="#9CC98A" fill-opacity="0.25" stroke="#79A86B" stroke-width="1.6"/><circle cx="12" cy="-1" r="2.5" fill="#79A86B" fill-opacity="0.5"/><circle cx="20" cy="-1" r="2.5" fill="#79A86B" fill-opacity="0.5"/><circle cx="28" cy="-1" r="2.5" fill="#79A86B" fill-opacity="0.5"/></g></g><g transform="translate(60,300)"><g transform="rotate(-10)"><path d="M0 0C10-8 30-8 40 0C30 6 10 6 0 0Z" fill="#9CC98A" fill-opacity="0.25" stroke="#79A86B" stroke-width="1.6"/><circle cx="12" cy="-1" r="2.5" fill="#79A86B" fill-opacity="0.5"/><circle cx="20" cy="-1" r="2.5" fill="#79A86B" fill-opacity="0.5"/><circle cx="28" cy="-1" r="2.5" fill="#79A86B" fill-opacity="0.5"/></g></g><g transform="translate(240,-60)"><g transform="rotate(-10)"><path d="M0 0C10-8 30-8 40 0C30 6 10 6 0 0Z" fill="#9CC98A" fill-opacity="0.25" stroke="#79A86B" stroke-width="1.6"/><circle cx="12" cy="-1" r="2.5" fill="#79A86B" fill-opacity="0.5"/><circle cx="20" cy="-1" r="2.5" fill="#79A86B" fill-opacity="0.5"/><circle cx="28" cy="-1" r="2.5" fill="#79A86B" fill-opacity="0.5"/></g></g><g transform="translate(240,120)"><g transform="rotate(-10)"><path d="M0 0C10-8 30-8 40 0C30 6 10 6 0 0Z" fill="#9CC98A" fill-opacity="0.25" stroke="#79A86B" stroke-width="1.6"/><circle cx="12" cy="-1" r="2.5" fill="#79A86B" fill-opacity="0.5"/><circle cx="20" cy="-1" r="2.5" fill="#79A86B" fill-opacity="0.5"/><circle cx="28" cy="-1" r="2.5" fill="#79A86B" fill-opacity="0.5"/></g></g><g transform="translate(240,300)"><g transform="rotate(-10)"><path d="M0 0C10-8 30-8 40 0C30 6 10 6 0 0Z" fill="#9CC98A" fill-opacity="0.25" stroke="#79A86B" stroke-width="1.6"/><circle cx="12" cy="-1" r="2.5" fill="#79A86B" fill-opacity="0.5"/><circle cx="20" cy="-1" r="2.5" fill="#79A86B" fill-opacity="0.5"/><circle cx="28" cy="-1" r="2.5" fill="#79A86B" fill-opacity="0.5"/></g></g><g transform="translate(-30,-55)"><g transform="rotate(25)"><path d="M0 0L6 30L12 0Z" fill="#F0A06A" fill-opacity="0.3" stroke="#E08A55" stroke-width="1.6" stroke-linejoin="round"/><path d="M6 0L2-9M6 0V-10M6 0L10-9" stroke="#79A86B" stroke-width="1.6" stroke-linecap="round"/></g></g><g transform="translate(-30,125)"><g transform="rotate(25)"><path d="M0 0L6 30L12 0Z" fill="#F0A06A" fill-opacity="0.3" stroke="#E08A55" stroke-width="1.6" stroke-linejoin="round"/><path d="M6 0L2-9M6 0V-10M6 0L10-9" stroke="#79A86B" stroke-width="1.6" stroke-linecap="round"/></g></g><g transform="translate(-30,305)"><g transform="rotate(25)"><path d="M0 0L6 30L12 0Z" fill="#F0A06A" fill-opacity="0.3" stroke="#E08A55" stroke-width="1.6" stroke-linejoin="round"/><path d="M6 0L2-9M6 0V-10M6 0L10-9" stroke="#79A86B" stroke-width="1.6" stroke-linecap="round"/></g></g><g transform="translate(150,-55)"><g transform="rotate(25)"><path d="M0 0L6 30L12 0Z" fill="#F0A06A" fill-opacity="0.3" stroke="#E08A55" stroke-width="1.6" stroke-linejoin="round"/><path d="M6 0L2-9M6 0V-10M6 0L10-9" stroke="#79A86B" stroke-width="1.6" stroke-linecap="round"/></g></g><g transform="translate(150,125)"><g transform="rotate(25)"><path d="M0 0L6 30L12 0Z" fill="#F0A06A" fill-opacity="0.3" stroke="#E08A55" stroke-width="1.6" stroke-linejoin="round"/><path d="M6 0L2-9M6 0V-10M6 0L10-9" stroke="#79A86B" stroke-width="1.6" stroke-linecap="round"/></g></g><g transform="translate(150,305)"><g transform="rotate(25)"><path d="M0 0L6 30L12 0Z" fill="#F0A06A" fill-opacity="0.3" stroke="#E08A55" stroke-width="1.6" stroke-linejoin="round"/><path d="M6 0L2-9M6 0V-10M6 0L10-9" stroke="#79A86B" stroke-width="1.6" stroke-linecap="round"/></g></g><g transform="translate(330,-55)"><g transform="rotate(25)"><path d="M0 0L6 30L12 0Z" fill="#F0A06A" fill-opacity="0.3" stroke="#E08A55" stroke-width="1.6" stroke-linejoin="round"/><path d="M6 0L2-9M6 0V-10M6 0L10-9" stroke="#79A86B" stroke-width="1.6" stroke-linecap="round"/></g></g><g transform="translate(330,125)"><g transform="rotate(25)"><path d="M0 0L6 30L12 0Z" fill="#F0A06A" fill-opacity="0.3" stroke="#E08A55" stroke-width="1.6" stroke-linejoin="round"/><path d="M6 0L2-9M6 0V-10M6 0L10-9" stroke="#79A86B" stroke-width="1.6" stroke-linecap="round"/></g></g><g transform="translate(330,305)"><g transform="rotate(25)"><path d="M0 0L6 30L12 0Z" fill="#F0A06A" fill-opacity="0.3" stroke="#E08A55" stroke-width="1.6" stroke-linejoin="round"/><path d="M6 0L2-9M6 0V-10M6 0L10-9" stroke="#79A86B" stroke-width="1.6" stroke-linecap="round"/></g></g><g transform="translate(-160,-30)"><g transform="rotate(-30)"><ellipse cx="0" cy="0" rx="9" ry="16" fill="#A58BBE" fill-opacity="0.3" stroke="#957BAE" stroke-width="1.6"/><path d="M-6-13C-2-19 2-19 6-13M0-17V-22" stroke="#79A86B" stroke-width="1.6" fill="none" stroke-linecap="round"/></g></g><g transform="translate(-160,150)"><g transform="rotate(-30)"><ellipse cx="0" cy="0" rx="9" ry="16" fill="#A58BBE" fill-opacity="0.3" stroke="#957BAE" stroke-width="1.6"/><path d="M-6-13C-2-19 2-19 6-13M0-17V-22" stroke="#79A86B" stroke-width="1.6" fill="none" stroke-linecap="round"/></g></g><g transform="translate(-160,330)"><g transform="rotate(-30)"><ellipse cx="0" cy="0" rx="9" ry="16" fill="#A58BBE" fill-opacity="0.3" stroke="#957BAE" stroke-width="1.6"/><path d="M-6-13C-2-19 2-19 6-13M0-17V-22" stroke="#79A86B" stroke-width="1.6" fill="none" stroke-linecap="round"/></g></g><g transform="translate(20,-30)"><g transform="rotate(-30)"><ellipse cx="0" cy="0" rx="9" ry="16" fill="#A58BBE" fill-opacity="0.3" stroke="#957BAE" stroke-width="1.6"/><path d="M-6-13C-2-19 2-19 6-13M0-17V-22" stroke="#79A86B" stroke-width="1.6" fill="none" stroke-linecap="round"/></g></g><g transform="translate(20,150)"><g transform="rotate(-30)"><ellipse cx="0" cy="0" rx="9" ry="16" fill="#A58BBE" fill-opacity="0.3" stroke="#957BAE" stroke-width="1.6"/><path d="M-6-13C-2-19 2-19 6-13M0-17V-22" stroke="#79A86B" stroke-width="1.6" fill="none" stroke-linecap="round"/></g></g><g transform="translate(20,330)"><g transform="rotate(-30)"><ellipse cx="0" cy="0" rx="9" ry="16" fill="#A58BBE" fill-opacity="0.3" stroke="#957BAE" stroke-width="1.6"/><path d="M-6-13C-2-19 2-19 6-13M0-17V-22" stroke="#79A86B" stroke-width="1.6" fill="none" stroke-linecap="round"/></g></g><g transform="translate(200,-30)"><g transform="rotate(-30)"><ellipse cx="0" cy="0" rx="9" ry="16" fill="#A58BBE" fill-opacity="0.3" stroke="#957BAE" stroke-width="1.6"/><path d="M-6-13C-2-19 2-19 6-13M0-17V-22" stroke="#79A86B" stroke-width="1.6" fill="none" stroke-linecap="round"/></g></g><g transform="translate(200,150)"><g transform="rotate(-30)"><ellipse cx="0" cy="0" rx="9" ry="16" fill="#A58BBE" fill-opacity="0.3" stroke="#957BAE" stroke-width="1.6"/><path d="M-6-13C-2-19 2-19 6-13M0-17V-22" stroke="#79A86B" stroke-width="1.6" fill="none" stroke-linecap="round"/></g></g><g transform="translate(200,330)"><g transform="rotate(-30)"><ellipse cx="0" cy="0" rx="9" ry="16" fill="#A58BBE" fill-opacity="0.3" stroke="#957BAE" stroke-width="1.6"/><path d="M-6-13C-2-19 2-19 6-13M0-17V-22" stroke="#79A86B" stroke-width="1.6" fill="none" stroke-linecap="round"/></g></g></svg>